<?xml version="1.0" standalone="no"?>
<!DOCTYPE svg PUBLIC "-//W3C//DTD SVG 20010904//EN"
 "http://www.w3.org/TR/2001/REC-SVG-20010904/DTD/svg10.dtd">
<svg version="1.0" xmlns="http://www.w3.org/2000/svg"
 width="260.000000pt" height="260.000000pt" viewBox="0 0 260.000000 260.000000"
 preserveAspectRatio="xMidYMid meet">
<metadata>
Created by potrace 1.11, written by Peter Selinger 2001-2013
</metadata>
<g transform="translate(0.000000,260.000000) scale(0.100000,-0.100000)"
fill="#000000" stroke="none">
<path d="M1825 2316 c-115 -55 -174 -160 -147 -258 l10 -37 -52 -25 c-29 -14
-61 -35 -70 -45 -17 -19 -19 -17 -56 57 -52 104 -129 180 -201 197 -24 6 -27
3 -34 -32 -4 -21 -22 -71 -40 -111 l-34 -73 -39 5 c-26 2 -63 -4 -108 -20
-192 -67 -245 -82 -249 -71 -2 7 -6 24 -9 38 -11 52 -63 90 -125 91 -24 0
-158 -41 -355 -108 l-316 -109 0 -249 c0 -194 3 -247 13 -243 6 2 38 13 69 22
31 10 55 22 52 27 -3 4 1 5 9 2 8 -3 32 2 53 12 22 9 44 18 51 20 7 1 42 12
78 24 67 22 86 35 38 25 -23 -5 -25 -4 -11 5 24 15 73 0 173 -54 69 -37 80
-47 81 -70 l1 -28 -56 7 c-31 3 -77 2 -104 -3 -30 -6 -50 -6 -53 0 -13 20
-100 51 -143 51 -44 -1 -121 -29 -121 -45 0 -11 57 -10 64 1 8 13 87 10 117
-5 15 -7 29 -11 32 -8 3 3 4 -2 3 -11 -1 -9 -15 -25 -31 -35 -41 -27 -75 -88
-75 -133 0 -83 76 -130 146 -92 36 19 74 84 74 127 0 23 3 25 33 19 24 -6 31
-12 29 -27 -22 -148 -11 -215 59 -359 52 -107 67 -160 63 -215 -6 -77 -16
-117 -45 -167 -37 -65 -34 -84 21 -140 52 -54 101 -71 136 -48 13 8 29 13 35
9 15 -9 29 15 29 49 l0 28 36 -27 c19 -15 49 -28 67 -28 18 -1 37 -5 44 -9 13
-8 43 29 43 53 0 43 33 118 67 155 21 22 44 52 52 68 11 21 22 27 50 29 20 0
62 2 93 4 61 2 123 31 219 101 26 18 52 33 59 33 6 0 32 -12 56 -26 53 -31 53
-42 2 -124 l-31 -50 21 -44 c26 -51 100 -123 135 -132 14 -3 36 0 49 7 12 7
30 12 40 11 20 -4 27 30 24 113 -2 33 2 68 7 79 8 17 11 16 40 -12 50 -49 145
-80 161 -53 3 5 15 7 25 4 26 -7 32 18 22 94 -4 34 -4 95 0 134 9 82 10 80
-66 181 -30 40 -55 80 -55 88 0 8 21 35 46 60 96 93 193 261 216 375 l10 50
78 37 c58 28 84 47 100 73 32 52 30 128 -4 199 -26 54 -94 126 -119 126 -15 0
-52 -24 -88 -57 l-25 -23 -27 41 c-20 30 -27 54 -27 88 0 39 -5 52 -29 75 -15
15 -41 28 -57 30 -26 3 -30 8 -35 47 -7 63 -33 105 -89 145 -55 39 -58 45 -34
69 17 17 12 45 -8 45 -7 0 -35 -11 -63 -24z m-489 -632 c18 -10 18 -12 0 -39
-19 -28 -41 -52 -82 -88 -22 -19 -99 -41 -177 -51 -27 -3 -54 -9 -60 -13 -21
-13 -36 -11 -41 5 -9 29 -27 144 -24 147 6 5 145 54 185 66 23 7 40 15 38 20
-3 4 3 5 13 2 10 -2 24 3 31 11 11 14 18 12 56 -17 24 -18 51 -37 61 -43z
m-581 -94 c-27 -12 -43 -12 -25 0 8 5 22 9 30 9 10 0 8 -3 -5 -9z m35 -5 c-10
-13 -11 -27 -1 -70 12 -54 9 -75 -10 -75 -18 0 -139 91 -134 100 3 5 -3 11
-12 14 -10 3 -1 3 20 0 22 -3 37 -1 37 6 0 5 3 9 8 8 16 -4 82 14 82 22 0 6 5
10 11 10 8 0 7 -5 -1 -15z m-580 -185 c-8 -5 -19 -10 -25 -10 -5 0 -3 5 5 10
8 5 20 10 25 10 6 0 3 -5 -5 -10z m200 -242 c0 -35 -33 -78 -60 -78 -26 0 -41
20 -29 42 5 10 6 18 2 18 -10 1 69 50 80 50 4 0 7 -14 7 -32z"/>
</g>
</svg>
